# xmcd
#
# Track frame offsets:
#	150
#	11438
#	21373
#	32213
#	40658
#	52365
#	63365
#	73588
#	84315
#	95030
#	106020
#	116710
#	129628
#	141853
#
# Disc length: 2038
#
# Revision: 2
# Processed by: cddbd v1.5.1PL0 Copyright (c) Steve Scherf et al.
# Submitted via: CDex 1.50beta9
# Normalized: r0:TDELIM( - ),TSWAP
#
DISCID=c207f40e
DTITLE=Various Artist - 50's Hit Parade
DYEAR=1900
DGENRE=HitParade
TTITLE0=Bill Haley - Shake Rattle And Roll
TTITLE1=Little Richard - Lucille
TTITLE2=Chuck Berry - Roll Over Beethoven
TTITLE3=Clovers - Love Potion 9
TTITLE4=Platters - Smoke Gets In Your Eyes
TTITLE5=Lloyd Price - Personality
TTITLE6=Bobby Day - Over And Over
TTITLE7=Fats Domino - Ain't That A Shame
TTITLE8=Little Rcihard - Tutti Fruitty
TTITLE9=Bobby Freeman - Do You Want To Dance
TTITLE10=Jerry Wallace - Primrose Lane
TTITLE11=Mickey And Sylvia - Love Is Strange
TTITLE12=Platters - My Prayer
TTITLE13=Fabian - Tiger
EXTD=
EXTT0=
EXTT1=
EXTT2=
EXTT3=
EXTT4=
EXTT5=
EXTT6=
EXTT7=
EXTT8=
EXTT9=
EXTT10=
EXTT11=
EXTT12=
EXTT13=
PLAYORDER=
